<svg version="1" xmlns="http://www.w3.org/2000/svg" width="346.667" height="346.667" viewBox="0 0 260.000000 260.000000"><path d="M105.9 9.7c-1.3 1-4.8 3.7-7.7 6-3 2.4-11.3 7.3-18.5 11-22.1 11-33.9 19.5-43.1 31.2-6.7 8.5-10.4 14.6-14.8 24.6-6.9 15.4-8.5 23.5-6.4 31.6 1.8 6.6 3.4 20.9 4.6 39.2.8 12.2 1.3 14.6 3.8 20.2 1.7 3.4 4.5 8 6.5 10.1 1.9 2.2 6.2 7.9 9.5 12.9 21.3 31.6 55.5 49.5 94.3 49.5 22.9 0 41.8-5.9 63.4-19.8 14-8.9 31.6-30.4 38.5-46.9 15.4-36.6 12.1-75.7-8.9-107.4-11.9-17.9-26.6-30.8-45.6-40-14.9-7.1-26.8-10-44.7-10.6-13.6-.5-16.5-1.1-13.8-2.8.6-.3 1-1.4 1-2.3 0-1.1-.8-.6-2.1 1.6-1.2 1.7-3.1 3.4-4.3 3.7-20.1 4.4-28.7 7.2-37.5 12.4-3.5 2.1-5.1 2.7-4.8 1.7 1-2.6-.9-2.7-2.1-.2-.6 1.3-4.7 4.5-9.3 7.2-9.4 5.6-20.8 15.8-27.5 24.7C29.8 76 24.5 87.6 21 101l-3.1 11.5.5-9c1.3-22.7 18.1-48.8 41.4-63.9 4-2.6 13.5-7.8 21-11.6 18.2-9 30.2-17.3 28-19.5-.2-.3-1.5.3-2.9 1.2zM160 26.9c21 5.7 37.4 15.4 52.6 31.2 35.3 36.8 40.2 94.5 11.6 136.7l-3 4.4-3.8-7.1-3.9-7.1H67.3l-6.8 12c-7.9 13.8-6.8 13.7-15.7 1.6-8.3-11.2-9.2-13-7.8-16.9 1.5-4.3 5-23.3 5-27.2 0-1.7-1-5.2-2.3-7.7-2.1-4.2-2.2-4.9-.9-7.3 5.1-9.8 6.9-23.4 3.8-29.3-1.8-3.5-6.4-7.4-7.7-6.6-1.6.9-1-.3 2.7-5.7 2-3 5.8-9.8 8.5-15.2 4.5-9.2 5.2-10.1 12.2-15.2 7.2-5.2 14.2-13.1 16.8-18.7 1.2-2.7 3.1-3.8 18-10.4 8-3.5 19.4-9.7 21.9-11.8 2.7-2.4 4.4-2.6 21-2.2 12.5.3 18.3.9 24 2.5zm-48.5 0c-3.1 2.9-32.4 16.5-33.4 15.5-.3-.3.1-1.7 1-3.2 1-1.9 3.9-3.8 9.4-6.1 11.8-5.1 25.8-8.9 23-6.2zM76.3 41.8c-.6 2.4-6.3 6.1-6.3 4.1 0-1.2 5.9-7.4 6.5-6.7.2.2.2 1.4-.2 2.6zM68 46.4c0 .7-2.4 3.2-5.2 5.4-2.9 2.2-6.8 5.4-8.5 7-1.8 1.7-3.3 2.7-3.3 2.2 0-.7 15.9-16 16.7-16 .1 0 .3.6.3 1.4zm-16.2 9.4C40.2 68 30.7 83.4 26.4 97.2c-2.4 7.8-2.9 6.7-.8-1.8 3.7-15.4 14-31.9 26.1-41.9 3.7-3 6.9-5.5 7.1-5.5.3 0-2.9 3.5-7 7.8zm20.1-4.6c-3 4.3-14.6 15.8-16 15.8-.9 0 4.1-6.4 12.5-16.3 1.3-1.5 3.1-2.7 4.1-2.7 1.4 0 1.3.4-.6 3.2zm-8.8 3.5c-.6 1-3.3 4.3-6 7.3-4.2 4.6-5 5.1-5.1 3.3 0-1.4 2-3.9 5.7-7.2 6.2-5.6 6.9-6 5.4-3.4zm-15.9 12c-1.6 2.1-4.8 7.4-7.1 11.8-4.2 8.1-8 13.8-8.1 12 0-3.1 16.6-29.3 17.8-28.1.2.3-.9 2.2-2.6 4.3zm-.6 6.3c-4.5 5-4.5 4.4-.3-2 1.9-3 3.3-4.3 3.5-3.4.2.8-1.2 3.3-3.2 5.4zm-3 11.5c-5.1 9.5-17.7 28.8-18.3 28.1-1.1-1.1 5.2-15.4 9.7-22.1 5.6-8.3 12-15.8 12.8-15.1.2.3-1.7 4.4-4.2 9.1zm-19.9 21.7c-.3.8-.6.5-.6-.6-.1-1.1.2-1.7.5-1.3.3.3.4 1.2.1 1.9zm15.6 2.7c2.4 2.9 4.7 12.4 3.3 13.8-.3.4-.6-.4-.6-1.6 0-2.9-2.3-8.2-4.4-10.4-2.6-2.5-4.3-2.1-1.9.5 3.4 3.8 4.3 6.4 4.3 12.7 0 3.9-.9 8.4-2.4 12.7-2.8 7.7-5.1 10.9-3.9 5.4.5-1.9.8-7.3.8-12 0-6.5-.4-9.2-1.8-11.3-2.6-4-3.8-3.3-1.6 1 2.5 5 2.5 14.6-.2 27.6-2.2 11.2-2.7 12.3-4.1 10.9-2.5-2.5-2.8-8.8-1.1-20.8 1.5-10.9 1.5-12.5.2-16l-1.6-3.9 4.6-6.7c5-7.3 5.7-7.5 10.4-1.9zm-15.2 25.6c-.9 4-.9 4-1-2 0-3.3.3-7.1.7-8.5 1.1-4 1.5 5.6.3 10.5zm15.4 18.1c.6 3.5-3.4 25.4-4.7 25.4-1.4 0-.4-8.3 1.8-15.4 1.7-5.6 1.7-6 0-10.7-1.9-5.4-1.2-8.8 1-4.7.7 1.4 1.6 3.8 1.9 5.4zm-3.8 6.3c-.2 2.5-1.3 6.4-2.3 8.6l-1.9 4-.3-4c-.3-3.7 1.3-13.8 2.6-15.9 1.1-1.9 2.4 2.9 1.9 7.3zm-9.1 12.8c-.5.5-3.6-8.6-3.5-10.1 0-.6.9 1.3 2 4.3 1 3 1.7 5.6 1.5 5.8z"/><path d="M126.5 44.8c-1.1.4-4.2 2.2-6.8 4l-4.8 3.3.7 4.7c.5 4.2.3 5-2 7.1-1.9 1.8-2.3 2.8-1.5 3.7.7.9.7 2.4 0 5.1-1.1 3.8-1.1 3.8 4 8.3 6.4 5.6 6.1 7.2-1.9 12.6-3.1 2.1-5.9 3.9-6.1 4.1-.3.2.1.9.7 1.5 2 2 1.4 4.5-1.8 7.1-1.6 1.4-3 3-3 3.6 0 .5-.7 1.4-1.6 1.9-1.3.7-1.2 1.1 1 2.6 1.4.9 2.6 2 2.6 2.5 0 .4-2.5 4.9-5.6 10-3 5.1-5.8 9.9-6.1 10.7-.4 1.2 6.2 1.4 47.2 1.4h47.7l-5.3-9.8c-8.1-15.1-19.7-36-24.2-43.5-3.2-5.4-4.4-6.7-5.9-6.3-2.1.5-5.8-2.5-5.8-4.7 0-.6.5-3 1-5.2.7-2.9.6-4.4-.4-5.5-.7-.8-1.4-3.5-1.5-5.8 0-2.4-.3-4.8-.6-5.2-.3-.5-3.3-2.7-6.6-4.9-5.9-4-8.9-4.7-13.4-3.3zM79.4 154.4l7.4 10.3-3.4 4.4c-1.9 2.4-5.3 6.1-7.7 8.1l-4.2 3.8H79c7 0 7.3-.1 5.2-1.6-3-2.1-2.8-6.2.6-10.3l2.7-3.3 4.3 6.1c4.7 6.7 5 7.7 2.5 8.4-1 .3 2.4.5 7.6.6l9.4.1-2-2.3c-1.1-1.2-4.8-6.2-8.2-11l-6.2-8.8L98 155c1.6-2.1 4.6-5.2 6.5-6.9 1.9-1.7 3.5-3.3 3.5-3.6 0-.3-2.8-.5-6.2-.4-6 0-6.2.1-4 1.6 1.2.8 2.2 2.1 2.2 2.7 0 1.4-4.8 8.6-5.8 8.6-.4 0-2.4-2.5-4.5-5.5-3.4-4.9-3.6-5.5-2-6.4 1.3-.8-.5-1-6.9-1.1H72l7.4 10.4zM110.2 145.7c1.6 1.9 14.8 32.4 14.8 34.4 0 .6 1.4.9 3.2.7 3.1-.3 3.2-.5 8.9-16.1 3.1-8.7 6.4-16.6 7.3-17.6 2.5-2.7 2-3.1-3.6-3-5.1 0-5.2.1-3 1.6 1.3.9 2.2 2.6 2.2 4 0 3.4-6.2 21.5-7.1 20.6-1.1-1.2-8.9-21.2-8.9-22.8 0-.8.8-1.9 1.8-2.4 1.2-.8-.8-1-7.7-1.1-8.9 0-9.3.1-7.9 1.7zM149.3 145.4c1.5 1.2 1.7 3.3 1.7 17.5 0 15.8 0 16.2-2.2 17.1-1.6.6.5.9 7.2.9 6.9 0 9-.2 7.8-1-1.6-.9-1.8-2.8-1.8-17.4 0-14.6.2-16.5 1.8-17.4 1.2-.8-.7-1-7.3-1-7.7 0-8.7.2-7.2 1.3zM169.8 145.6c2.1 1.5 2.2 2.1 2.2 17.5 0 15.6 0 16-2.2 16.9-1.6.6.5.9 7.1.9 7.9.1 9.2-.1 7.7-1.2-1.5-1.1-1.7-3.2-1.7-17.2-.1-14.1.1-16 1.7-17.2 1.5-1.1.3-1.3-7.6-1.3-8.8 0-9.3.1-7.2 1.6zM190.8 145.6c2.1 1.5 2.2 2.1 2.2 16.9 0 14.8-.1 15.4-2.2 16.9-2.1 1.5-1.6 1.6 7.2 1.6s9.3-.1 7.2-1.6c-2.1-1.5-2.2-2.1-2.2-16.9 0-14.8.1-15.4 2.2-16.9 2.1-1.5 1.6-1.6-7.2-1.6s-9.3.1-7.2 1.6z"/></svg>