<svg width="28" height="19" fill="none" xmlns="http://www.w3.org/2000/svg"><path d="M25.098.638H2.689C1.21.638 0 1.28 0 2.062c0 .783 1.21 1.423 2.689 1.423h22.409c1.479 0 2.689-.64 2.689-1.423S26.577.638 25.097.638zm0 7.456H2.689C1.21 8.094 0 8.735 0 9.518c0 .783 1.21 1.423 2.689 1.423h22.409c1.479 0 2.689-.64 2.689-1.423s-1.21-1.424-2.69-1.424zm0 7.456H2.689C1.21 15.55 0 16.19 0 16.974c0 .783 1.21 1.423 2.689 1.423h22.409c1.479 0 2.689-.64 2.689-1.423s-1.21-1.424-2.69-1.424z" fill="#D0AD4A"/></svg>